<?xml version="1.0" encoding="utf-8"?>
<!-- Generator: Adobe Illustrator 18.1.1, SVG Export Plug-In . SVG Version: 6.00 Build 0)  -->
<!DOCTYPE svg PUBLIC "-//W3C//DTD SVG 1.1//EN" "http://www.w3.org/Graphics/SVG/1.1/DTD/svg11.dtd">
<svg version="1.1" id="Layer_1" xmlns="http://www.w3.org/2000/svg" xmlns:xlink="http://www.w3.org/1999/xlink" x="0px" y="0px"
	 viewBox="0 0 75 75" enable-background="new 0 0 75 75" xml:space="preserve">
<rect fill-rule="evenodd" clip-rule="evenodd" fill="#EDF0F2" width="75" height="75"/>
<g opacity="0.3">
	<defs>
		<rect id="SVGID_1_" opacity="0.3" width="75" height="75"/>
	</defs>
	<clipPath id="SVGID_2_">
		<use xlink:href="#SVGID_1_"  overflow="visible"/>
	</clipPath>
	<path clip-path="url(#SVGID_2_)" fill-rule="evenodd" clip-rule="evenodd" fill="#231F20" d="M68.666664,79.5
		c-8.861431,0.000374-31.304169,0.00222-31.304169,0.00222S15.311431,79.500374,6.5,79.5
		c-2.765037-0.029816-2.50617-6.067635-2.296352-8.821938c0.618528-4.364326,3.035047-10.942204,11.69092-13.757618
		c9.191622-3.546349,9.851633-3.940613,9.851633-3.940613s2.1467-3.546539,3.13727-3.771542
		c0.99057-0.225742,0.165003-1.632618,0-2.026882c-0.165003-0.393894-1.430948,0-1.430948-5.122486
		c0-1.689098,0.220188-1.801323-0.605379-1.801323c-0.825563,0-2.752079-1.18224-2.752079-5.291565
		c0-4.109692,0-4.278954,0.715752-4.390991c0.110186-1.576506-0.770382-4.109694-0.770382-9.851263
		c0-5.74231,4.625996-11.150541,13.322062-11.150541c2.530586,0,7.741592,0.612972,8.248081,0.940756
		c1.827808,1.207611,4.244511,4.229694,5.123783,10.209785c0,5.74157-0.879272,8.274757-0.769085,9.851263
		c0.714455,0.112038,0.714455,0.2813,0.714455,4.390991c0,4.109325-1.923363,5.291565-2.748005,5.291565
		c-0.824272,0-0.604084,0.112225-0.604084,1.801323c0,5.122486-1.264091,4.728592-1.428726,5.122486
		c-0.165001,0.394264-0.989273,1.80114,0,2.026882c0.988907,0.225002,3.131901,3.771542,3.131901,3.771542
		s0.659645,0.394264,9.836262,3.940613c8.714207,2.838936,11.093685,9.504963,11.686848,13.868359
		C70.731148,73.605515,71.333336,79.5,68.666664,79.5z"/>
</g>
<circle fill="none" cx="37.5" cy="37.5" r="37.5"/>
</svg>
